The Grudge 720p BluRay [DTS 5.1English+Hindi] Dual Audio By Ashish7(wall.e)



Cover:- http://www3.picturepush.com/photo/a/9081761/img/Ashish-rawat/Cover.jpg


Screenshots: 
http://www1.picturepush.com/photo/a/9081709/img/Ashish-rawat/1.png 
http://www4.picturepush.com/photo/a/9081712/img/Ashish-rawat/2.png 
http://www1.picturepush.com/photo/a/9081714/img/Ashish-rawat/3.png 
http://www3.picturepush.com/photo/a/9081716/img/Ashish-rawat/4.png 
http://www5.picturepush.com/photo/a/9081718/img/Ashish-rawat/5.png 
http://www2.picturepush.com/photo/a/9081720/img/Ashish-rawat/6.png


Sample in torrent file...


INFO:

Format                           : Matroska
File size                        : 4.50 GiB
Duration                         : 1h 31mn
Overall bit rate                 : 7055 Kbps
Movie name                       : The Grudge (2004)

Video
ID                               : 1
Format                           : AVC
Format/Info                      : Advanced Video Codec
Codec ID                         : V_MPEG4/ISO/AVC
Bit rate                         : 5300 Kbps
Width                            : 1280 pixels
Height                           : 688 pixels
Display aspect ratio             : 1.860
Frame rate                       : 23.976 fps
Chroma subsampling               : 4:2:0
Stream size                      : 3.29 GiB
Title                            : Grudge 720p BluRay DTS By Ashish7(wall.e)

Audio #1
ID                               : 2
Format                           : DTS
Format/Info                      : Digital Theater Systems
Muxing mode                      : Header stripping
Codec ID                         : A_DTS
Bit rate mode                    : Constant
Bit rate                         : 1510 Kbps
Channel(s)                       : 6 channels
Channel positions                : Front: L C R, Side: L R, LFE
Sampling rate                    : 48.0 KHz
Stream size                      : 987 MiB
Title                            : 5.1 English DTS Audio By Ashish7(wall.e)

Audio #2
ID                               : 3
Format                           : AC-3
Codec ID                         : A_AC3
Bit rate                         : 256 Kbps
Channel(s)                       : 2 channels
Channel positions                : Front: L R
Sampling rate                    : 48.0 KHz
Bit depth                        : 16 bits
Stream size                      : 167 MiB
Title                            : Hindi Audio By Ashish7(wall.e)

Text
ID                               : 4
Format                           : UTF-8
Codec ID                         : S_TEXT/UTF8
Codec ID/Info                    : UTF-8 Plain Text
Title                            : English Subtitles By Ashish7(wall.e)